<svg width="184" height="35" viewBox="0 0 184 35" fill="none" xmlns="http://www.w3.org/2000/svg">
<path d="M20.52 0.736023L19.704 6.35202H7.992V14.32H18.216V19.84H7.992V28.336H20.52V34H0.119995V0.736023H20.52Z" fill="#141414"/>
<path d="M52.9489 7.69602C54.9649 7.69602 56.5809 8.38402 57.7969 9.76002C59.0129 11.104 59.6209 12.976 59.6209 15.376V34H52.0369V16.672C52.0369 14.4 51.3169 13.264 49.8769 13.264C49.0769 13.264 48.3729 13.536 47.7649 14.08C47.1569 14.624 46.5649 15.456 45.9889 16.576V34H38.4049V16.672C38.4049 14.4 37.6849 13.264 36.2449 13.264C35.4769 13.264 34.7729 13.552 34.1329 14.128C33.5249 14.672 32.9329 15.488 32.3569 16.576V34H24.7729V8.51202H31.3969L31.9249 11.488C32.9169 10.208 34.0049 9.26402 35.1889 8.65602C36.4049 8.01602 37.7809 7.69602 39.3169 7.69602C40.7569 7.69602 41.9889 8.04802 43.0129 8.75202C44.0689 9.45602 44.8369 10.448 45.3169 11.728C46.3409 10.352 47.4609 9.34402 48.6769 8.70402C49.9249 8.03202 51.3489 7.69602 52.9489 7.69602Z" fill="#141414"/>
<path d="M87.5437 20.752C87.5437 21.808 87.4957 22.72 87.3997 23.488H71.6077C71.8637 25.632 72.4717 27.136 73.4317 28C74.3917 28.864 75.7197 29.296 77.4157 29.296C78.4397 29.296 79.4317 29.12 80.3917 28.768C81.3517 28.384 82.3917 27.808 83.5117 27.04L86.6317 31.264C83.6557 33.632 80.3437 34.816 76.6957 34.816C72.5677 34.816 69.3997 33.6 67.1917 31.168C64.9837 28.736 63.8797 25.472 63.8797 21.376C63.8797 18.784 64.3437 16.464 65.2717 14.416C66.1997 12.336 67.5597 10.704 69.3517 9.52002C71.1437 8.30402 73.2877 7.69602 75.7837 7.69602C79.4637 7.69602 82.3437 8.84802 84.4237 11.152C86.5037 13.456 87.5437 16.656 87.5437 20.752ZM80.1037 18.592C80.0397 14.688 78.6637 12.736 75.9757 12.736C74.6637 12.736 73.6397 13.216 72.9037 14.176C72.1997 15.136 71.7677 16.72 71.6077 18.928H80.1037V18.592Z" fill="#141414"/>
<path d="M105.628 7.79202C106.556 7.79202 107.404 7.90402 108.172 8.12802L106.972 15.472C106.012 15.248 105.244 15.136 104.668 15.136C103.164 15.136 102.012 15.664 101.212 16.72C100.444 17.744 99.8361 19.296 99.3881 21.376V34H91.8041V8.51202H98.4281L99.0521 13.456C99.6281 11.696 100.492 10.32 101.644 9.32802C102.828 8.30402 104.156 7.79202 105.628 7.79202Z" fill="#141414"/>
<path d="M119.483 7.69602C121.307 7.69602 123.019 7.96802 124.619 8.51202C126.219 9.05602 127.627 9.82402 128.843 10.816L126.059 15.088C123.979 13.776 121.883 13.12 119.771 13.12C118.779 13.12 118.011 13.296 117.467 13.648C116.955 13.968 116.699 14.432 116.699 15.04C116.699 15.52 116.811 15.92 117.035 16.24C117.291 16.528 117.787 16.832 118.523 17.152C119.259 17.472 120.395 17.856 121.931 18.304C124.587 19.072 126.555 20.08 127.835 21.328C129.147 22.544 129.803 24.24 129.803 26.416C129.803 28.144 129.307 29.648 128.315 30.928C127.323 32.176 125.963 33.136 124.235 33.808C122.507 34.48 120.587 34.816 118.475 34.816C116.331 34.816 114.331 34.48 112.475 33.808C110.651 33.136 109.099 32.208 107.819 31.024L111.515 26.896C113.659 28.56 115.915 29.392 118.283 29.392C119.435 29.392 120.331 29.184 120.971 28.768C121.643 28.352 121.979 27.76 121.979 26.992C121.979 26.384 121.851 25.904 121.595 25.552C121.339 25.2 120.843 24.88 120.107 24.592C119.371 24.272 118.203 23.888 116.603 23.44C114.075 22.704 112.187 21.68 110.939 20.368C109.691 19.056 109.067 17.424 109.067 15.472C109.067 14 109.483 12.688 110.315 11.536C111.179 10.352 112.395 9.42402 113.963 8.75202C115.563 8.04802 117.403 7.69602 119.483 7.69602Z" fill="#141414"/>
<path d="M144.75 7.69602C148.654 7.69602 151.71 8.89602 153.918 11.296C156.126 13.664 157.23 16.992 157.23 21.28C157.23 24 156.718 26.384 155.694 28.432C154.702 30.448 153.262 32.016 151.374 33.136C149.518 34.256 147.31 34.816 144.75 34.816C140.878 34.816 137.822 33.632 135.582 31.264C133.374 28.864 132.27 25.52 132.27 21.232C132.27 18.512 132.766 16.144 133.758 14.128C134.782 12.08 136.222 10.496 138.078 9.37602C139.966 8.25602 142.19 7.69602 144.75 7.69602ZM144.75 13.264C143.214 13.264 142.062 13.92 141.294 15.232C140.526 16.512 140.142 18.512 140.142 21.232C140.142 24.016 140.51 26.048 141.246 27.328C142.014 28.608 143.182 29.248 144.75 29.248C146.286 29.248 147.438 28.608 148.206 27.328C148.974 26.016 149.358 24 149.358 21.28C149.358 18.496 148.974 16.464 148.206 15.184C147.47 13.904 146.318 13.264 144.75 13.264Z" fill="#141414"/>
<path d="M176.67 7.69602C178.878 7.69602 180.606 8.36802 181.854 9.71202C183.102 11.056 183.726 12.944 183.726 15.376V34H176.142V16.672C176.142 15.392 175.934 14.512 175.518 14.032C175.134 13.52 174.542 13.264 173.742 13.264C172.206 13.264 170.734 14.368 169.326 16.576V34H161.742V8.51202H168.366L168.894 11.536C169.982 10.256 171.15 9.29602 172.398 8.65602C173.678 8.01602 175.102 7.69602 176.67 7.69602Z" fill="#141414"/>
</svg>
